<?xml version="1.0" standalone="no"?>
<!DOCTYPE svg PUBLIC "-//W3C//DTD SVG 20010904//EN"
 "http://www.w3.org/TR/2001/REC-SVG-20010904/DTD/svg10.dtd">
<svg version="1.0" xmlns="http://www.w3.org/2000/svg"
 width="960.000000pt" height="346.000000pt" viewBox="0 0 960.000000 346.000000"
 preserveAspectRatio="xMidYMid meet">

<g transform="translate(0.000000,346.000000) scale(0.100000,-0.100000)"
fill="#000000" stroke="none">
<path d="M800 2575 l0 -65 807 0 807 0 -64 65 -64 65 -743 0 -743 0 0 -65z"/>
<path d="M2940 2575 l0 -65 230 0 230 0 0 65 0 65 -230 0 -230 0 0 -65z"/>
<path d="M4800 2575 l0 -65 225 0 225 0 0 65 0 65 -225 0 -225 0 0 -65z"/>
<path d="M6190 2575 l0 -65 225 0 225 0 0 65 0 65 -225 0 -225 0 0 -65z"/>
<path d="M6950 2575 l0 -65 802 0 802 0 -64 65 -64 65 -738 0 -738 0 0 -65z"/>
<path d="M800 2385 l0 -65 902 0 902 0 -64 65 -64 65 -838 0 -838 0 0 -65z"/>
<path d="M2940 2385 l0 -65 230 0 230 0 0 65 0 65 -230 0 -230 0 0 -65z"/>
<path d="M4800 2385 l0 -65 225 0 225 0 0 65 0 65 -225 0 -225 0 0 -65z"/>
<path d="M6190 2385 l0 -65 225 0 225 0 0 65 0 65 -225 0 -225 0 0 -65z"/>
<path d="M6950 2385 l0 -65 897 0 897 0 -64 65 -64 65 -833 0 -833 0 0 -65z"/>
<path d="M800 2195 l0 -65 230 0 230 0 0 65 0 65 -230 0 -230 0 0 -65z"/>
<path d="M2163 2222 c24 -25 37 -47 37 -65 l0 -27 225 0 225 0 0 65 0 65 -262
0 -262 0 37 -38z"/>
<path d="M2940 2195 l0 -65 230 0 230 0 0 65 0 65 -230 0 -230 0 0 -65z"/>
<path d="M4800 2195 l0 -65 225 0 225 0 0 65 0 65 -225 0 -225 0 0 -65z"/>
<path d="M6190 2195 l0 -65 225 0 225 0 0 65 0 65 -225 0 -225 0 0 -65z"/>
<path d="M6950 2195 l0 -65 225 0 225 0 0 65 0 65 -225 0 -225 0 0 -65z"/>
<path d="M8303 2222 c24 -25 37 -47 37 -65 l0 -27 230 0 230 0 0 65 0 65 -267
0 -267 0 37 -38z"/>
<path d="M800 2005 l0 -65 230 0 230 0 0 65 0 65 -230 0 -230 0 0 -65z"/>
<path d="M2200 2033 c0 -26 -8 -45 -27 -65 l-27 -28 252 0 252 0 0 65 0 65
-225 0 -225 0 0 -37z"/>
<path d="M2940 2005 l0 -65 230 0 230 0 0 65 0 65 -230 0 -230 0 0 -65z"/>
<path d="M4800 2005 l0 -65 225 0 225 0 0 65 0 65 -225 0 -225 0 0 -65z"/>
<path d="M6190 2005 l0 -65 225 0 225 0 0 65 0 65 -225 0 -225 0 0 -65z"/>
<path d="M6950 2005 l0 -65 225 0 225 0 0 65 0 65 -225 0 -225 0 0 -65z"/>
<path d="M8340 2033 c0 -26 -8 -45 -27 -65 l-27 -28 257 0 257 0 0 65 0 65
-230 0 -230 0 0 -37z"/>
<path d="M800 1815 l0 -65 848 0 848 0 64 65 64 65 -912 0 -912 0 0 -65z"/>
<path d="M2940 1815 l0 -65 230 0 230 0 0 65 0 65 -230 0 -230 0 0 -65z"/>
<path d="M4800 1815 l0 -65 225 0 225 0 0 65 0 65 -225 0 -225 0 0 -65z"/>
<path d="M6190 1815 l0 -65 225 0 225 0 0 65 0 65 -225 0 -225 0 0 -65z"/>
<path d="M6950 1815 l0 -65 843 0 843 0 64 65 64 65 -907 0 -907 0 0 -65z"/>
<path d="M800 1625 l0 -65 912 0 912 0 -64 65 -64 65 -848 0 -848 0 0 -65z"/>
<path d="M2940 1625 l0 -65 230 0 230 0 0 65 0 65 -230 0 -230 0 0 -65z"/>
<path d="M4800 1625 l0 -65 225 0 225 0 0 65 0 65 -225 0 -225 0 0 -65z"/>
<path d="M6190 1625 l0 -65 225 0 225 0 0 65 0 65 -225 0 -225 0 0 -65z"/>
<path d="M6950 1625 l0 -65 907 0 907 0 -64 65 -64 65 -843 0 -843 0 0 -65z"/>
<path d="M800 1435 l0 -65 230 0 230 0 0 65 0 65 -230 0 -230 0 0 -65z"/>
<path d="M2173 1472 c19 -20 27 -39 27 -65 l0 -37 225 0 225 0 0 65 0 65 -252
0 -252 0 27 -28z"/>
<path d="M2940 1435 l0 -65 230 0 230 0 0 65 0 65 -230 0 -230 0 0 -65z"/>
<path d="M4800 1435 l0 -65 225 0 225 0 0 65 0 65 -225 0 -225 0 0 -65z"/>
<path d="M6190 1435 l0 -65 225 0 225 0 0 65 0 65 -225 0 -225 0 0 -65z"/>
<path d="M6950 1435 l0 -65 225 0 225 0 0 65 0 65 -225 0 -225 0 0 -65z"/>
<path d="M8313 1472 c19 -20 27 -39 27 -65 l0 -37 230 0 230 0 0 65 0 65 -257
0 -257 0 27 -28z"/>
<path d="M800 1240 l0 -70 230 0 230 0 0 70 0 70 -230 0 -230 0 0 -70z"/>
<path d="M2200 1283 c0 -19 -14 -41 -42 -70 l-42 -43 267 0 267 0 0 70 0 70
-225 0 -225 0 0 -27z"/>
<path d="M2940 1240 l0 -70 317 0 317 0 -69 70 -69 70 -248 0 -248 0 0 -70z"/>
<path d="M4800 1240 l0 -70 312 0 312 0 -69 70 -69 70 -243 0 -243 0 0 -70z"/>
<path d="M6085 1240 l-69 -70 312 0 312 0 0 70 0 70 -243 0 -243 0 -69 -70z"/>
<path d="M6950 1240 l0 -70 225 0 225 0 0 70 0 70 -225 0 -225 0 0 -70z"/>
<path d="M8340 1240 l0 -70 230 0 230 0 0 70 0 70 -230 0 -230 0 0 -70z"/>
<path d="M800 1050 l0 -70 833 0 833 0 69 70 69 70 -902 0 -902 0 0 -70z"/>
<path d="M3055 1050 l69 -70 738 0 738 0 0 70 0 70 -807 0 -807 0 69 -70z"/>
<path d="M4915 1050 l69 -70 736 0 736 0 69 70 69 70 -874 0 -874 0 69 -70z"/>
<path d="M6950 1050 l0 -70 225 0 225 0 0 70 0 70 -225 0 -225 0 0 -70z"/>
<path d="M8340 1050 l0 -70 230 0 230 0 0 70 0 70 -230 0 -230 0 0 -70z"/>
<path d="M800 865 l0 -65 743 0 743 0 64 65 64 65 -807 0 -807 0 0 -65z"/>
<path d="M3240 865 l64 -65 648 0 648 0 0 65 0 65 -712 0 -712 0 64 -65z"/>
<path d="M5100 865 l64 -65 556 0 556 0 64 65 64 65 -684 0 -684 0 64 -65z"/>
<path d="M6950 865 l0 -65 225 0 225 0 0 65 0 65 -225 0 -225 0 0 -65z"/>
<path d="M8340 865 l0 -65 230 0 230 0 0 65 0 65 -230 0 -230 0 0 -65z"/>
</g>
</svg>
